#!OML:ASF H:\Terrain\Patient Classification 1\Walking\steve\steve.ASF
:FULLY-SPECIFIED
:DEGREES
409
root 8.56744 16.6323 18.3446 5.52632 -3.61246 2.1349
lowerback 0.030746 1.53375 -4.77791
upperback -2.22066 1.9793 -0.199641
thorax -2.45955 1.0829 2.42424
lowerneck -9.60062 0.15335 -2.21043
upperneck 21.111 0.288523 1.55406
head 8.10273 0.116067 0.916333
rclavicle -2.46151e-015 2.1593e-014
rhumerus -53.4168 -18.823 -70.4763
rradius 21.5794
rwrist 8.19851
rhand -13.6616 -35.4692
rfingers 7.12502
rthumb 12.4554 -65.0781
lclavicle -2.46151e-015 2.1593e-014
lhumerus -18.1292 2.53513 86.0641
lradius 27.2222
lwrist 14.1376
lhand -21.6522 -12.9748
lfingers 7.12502
lthumb 4.74464 16.9521
rfemur -35.4671 2.07655 19.8815
rtibia 48.9792
rfoot -17.4631 3.27954
rtoes -13.8161
lfemur -9.49042 1.95653 -27.4447
ltibia 25.0665
lfoot -19.1315 -4.65989
ltoes 5.4177
410
root 8.56586 16.6349 18.4883 5.5831 -3.72288 2.41901
lowerback -0.122607 1.48583 -5.14029
upperback -2.13753 1.92025 -0.300013
thorax -2.29269 1.05407 2.53085
lowerneck -9.59202 0.206134 -2.16284
upperneck 20.9157 0.304739 1.77819
head 8.0346 0.149525 0.982845
rclavicle -1.96756e-014 3.52843e-015
rhumerus -54.1552 -18.9338 -70.275
rradius 21.801
rwrist 8.04503
rhand -13.9377 -34.481
rfingers 7.12502
rthumb 12.1892 -64.1059
lclavicle -1.96756e-014 3.52843e-015
lhumerus -17.1696 1.34758 86.1406
lradius 28.0828
lwrist 14.8543
lhand -22.0814 -12.8532
lfingers 7.12502
lthumb 4.33017 17.0825
rfemur -36.18 2.24299 19.7149
rtibia 47.0097
rfoot -16.7967 2.49436
rtoes -16.2356
lfemur -8.45082 1.96544 -27.7745
ltibia 24.0084
lfoot -19.1244 -4.60854
ltoes 4.42343
411
root 8.56207 16.6435 18.6318 5.7855 -3.74051 2.31
lowerback -0.4115 1.39489 -5.14397
upperback -2.15126 1.81715 -0.239633
thorax -2.13793 1.00003 2.60523
lowerneck -9.25163 0.146285 -2.08651
upperneck 20.4765 0.226337 1.66651
head 7.82879 0.10732 0.921218
rclavicle 7.68291e-015 -1.6847e-014
rhumerus -54.9564 -19.0901 -69.873
rradius 21.8295
rwrist 7.96512
rhand -14.5302 -33.9639
rfingers 7.12502
rthumb 11.6179 -63.6218
lclavicle 7.68291e-015 -1.6847e-014
lhumerus -16.4033 0.197524 86.1731
lradius 29.0107
lwrist 15.4092
lhand -22.1791 -12.365
lfingers 7.12502
lthumb 4.23578 17.5726
rfemur -37.0092 2.40302 19.9652
rtibia 45.1691
rfoot -16.0942 1.69559
rtoes -16.6318
lfemur -7.4266 1.96491 -27.6472
ltibia 22.6677
lfoot -18.8687 -4.38859
ltoes 2.85111
412
root 8.56837 16.6452 18.778 5.92746 -3.45984 2.18944
lowerback -0.656464 1.17674 -5.003
upperback -2.10625 1.54473 -0.137989
thorax -1.92924 0.856846 2.64287
lowerneck -9.26132 0.114063 -1.84863
upperneck 20.2542 0.225234 1.25675
head 7.75859 0.0865655 0.744774
rclavicle 3.90154e-014 -6.78974e-015
rhumerus -55.6094 -19.5886 -68.9975
rradius 21.6017
rwrist 8.58603
rhand -14.791 -33.5945
rfingers 7.12502
rthumb 11.3663 -63.2665
lclavicle 3.90154e-014 -6.78974e-015
lhumerus -15.6659 -0.786932 86.186
lradius 29.9711
lwrist 16.382
lhand -21.9228 -12.2512
lfingers 7.12502
lthumb 4.48335 17.6813
rfemur -37.6418 2.33843 20.1207
rtibia 43.3905
rfoot -15.8725 1.82243
rtoes -15.3439
lfemur -6.28554 2.17292 -27.5214
ltibia 21.3916
lfoot -18.6346 -4.66481
ltoes 1.54532
413
root 8.57549 16.6345 18.9205 5.90699 -3.2976 2.6768
lowerback -0.456524 1.0745 -5.41834
upperback -2.19251 1.38952 -0.222405
thorax -2.12757 0.792246 2.78542
lowerneck -9.27932 0.0790584 -1.80251
upperneck 20.2541 0.209165 1.06143
head 7.76276 0.0639858 0.67127
rclavicle 2.21657e-014 -2.23633e-015
rhumerus -56.5337 -19.9374 -68.1054
rradius 21.5833
rwrist 8.97516
rhand -15.1232 -33.8491
rfingers 7.12502
rthumb 11.046 -63.5384
lclavicle 2.21657e-014 -2.23633e-015
lhumerus -15.0035 -1.79195 86.2839
lradius 30.6973
lwrist 17.2552
lhand -22.0546 -12.5318
lfingers 7.12502
lthumb 4.356 17.4034
rfemur -38.1026 2.49953 19.5461
rtibia 41.6243
rfoot -15.6982 2.27722
rtoes -14.0367
lfemur -5.07705 2.32274 -28.0672
ltibia 20.2334
lfoot -18.4825 -5.06116
ltoes 1.90905
414
root 8.57531 16.6358 19.0641 5.93175 -3.33349 2.72596
lowerback -0.276556 1.08631 -5.49821
upperback -2.33329 1.38924 -0.179778
thorax -2.37805 0.803316 2.86852
lowerneck -9.29223 0.0613406 -2.0274
upperneck 20.3937 0.179765 1.2745
head 7.81108 0.0524939 0.777176
rclavicle -1.60192e-015 1.92324e-014
rhumerus -57.6414 -20.1786 -67.1684
rradius 21.6256
rwrist 9.35819
rhand -15.2298 -34.9369
rfingers 7.12502
rthumb 10.9431 -64.6317
lclavicle -1.60192e-015 1.92324e-014
lhumerus -14.3823 -2.71547 86.4131
lradius 31.3
lwrist 18.0173
lhand -22.4067 -13.0196
lfingers 7.12502
lthumb 4.01602 16.9223
rfemur -38.4502 2.90897 19.4943
rtibia 39.8276
rfoot -15.2525 2.53473
rtoes -12.996
lfemur -3.943 2.38081 -28.0859
ltibia 18.9993
lfoot -18.1387 -5.25672
ltoes 3.09029
415
root 8.57729 16.6412 19.2181 6.07985 -3.2109 2.59825
lowerback -0.624452 0.960096 -5.33231
upperback -2.26566 1.24763 -0.115868
thorax -2.09633 0.721657 2.85205
lowerneck -9.74246 0.224394 -1.952
upperneck 20.7455 0.360875 1.45635
head 8.00576 0.161333 0.845319
rclavicle -1.29924e-014 -1.47598e-014
rhumerus -58.305 -20.554 -66.3486
rradius 21.5082
rwrist 9.86057
rhand -15.3436 -35.9399
rfingers 7.12502
rthumb 10.8333 -65.6405
lclavicle -1.29924e-014 -1.47598e-014
lhumerus -13.6121 -3.32033 86.3279
lradius 32.1065
lwrist 18.8634
lhand -22.3196 -13.1298
lfingers 7.12502
lthumb 4.10014 16.8105
rfemur -38.8889 2.78098 19.7605
rtibia 38.0096
rfoot -14.4551 2.94071
rtoes -10.9513
lfemur -2.9391 2.46969 -27.9082
ltibia 17.8664
lfoot -17.8762 -5.5069
ltoes 2.84856
416
root 8.58318 16.6303 19.3677 6.16427 -3.10334 2.83132
lowerback -0.891858 0.866944 -5.3753
upperback -2.16957 1.14137 -0.223111
thorax -1.83576 0.659738 2.77286
lowerneck -9.83954 0.0400477 -1.85226
upperneck 20.6089 0.136273 1.23203
head 7.98288 0.0411138 0.731977
rclavicle -9.21087e-015 -1.08338e-014
rhumerus -58.8431 -20.5825 -66.1686
rradius 21.6688
rwrist 9.32538
rhand -15.6927 -36.1876
rfingers 7.12502
rthumb 10.4966 -65.9055
lclavicle -9.21087e-015 -1.08338e-014
lhumerus -12.8976 -4.32789 86.1708
lradius 33.0508
lwrist 19.7011
lhand -22.3647 -12.7716
lfingers 7.12502
lthumb 4.0566 17.1695
rfemur -39.3793 2.5654 19.6388
rtibia 36.1856
rfoot -13.7322 3.55526
rtoes -8.98958
lfemur -1.9477 2.56367 -28.1696
ltibia 16.9158
lfoot -17.874 -5.66172
ltoes 1.71384
